<?xml version="1.0" standalone="no"?>
<!DOCTYPE svg PUBLIC "-//W3C//DTD SVG 20010904//EN"
 "http://www.w3.org/TR/2001/REC-SVG-20010904/DTD/svg10.dtd">
<svg version="1.0" xmlns="http://www.w3.org/2000/svg"
 width="320.000000pt" height="274.000000pt" viewBox="0 0 320.000000 274.000000"
 preserveAspectRatio="xMidYMid meet">

<g transform="translate(0.000000,274.000000) scale(0.100000,-0.100000)"
fill="#000000" stroke="none">
<path d="M0 1370 l0 -1370 1600 0 1600 0 0 1370 0 1370 -1600 0 -1600 0 0
-1370z m289 1167 c15 10 21 10 25 0 3 -9 7 -9 13 0 5 6 8 -9 8 -37 0 -38 -3
-46 -12 -38 -7 6 -13 24 -13 40 0 26 -2 29 -15 18 -18 -15 -19 -42 -3 -58 8
-8 9 -12 1 -12 -6 0 -14 6 -16 13 -4 9 -8 9 -16 -2 -7 -11 -8 -2 -4 30 6 40 5
43 -10 30 -20 -16 -23 -6 -4 13 9 10 14 11 19 2 6 -8 12 -8 27 1z m131 3 c0
-5 -7 -10 -15 -10 -8 0 -15 5 -15 10 0 6 7 10 15 10 8 0 15 -4 15 -10z m103
-2 c4 -10 8 -9 16 2 8 11 9 4 4 -25 -9 -54 -43 -86 -56 -52 -4 9 -8 8 -16 -3
-8 -11 -9 -4 -4 25 7 42 20 64 40 65 6 0 14 -6 16 -12z m110 0 c4 -10 8 -9 16
2 5 8 14 11 18 6 4 -5 2 -11 -4 -13 -16 -6 -17 -55 -1 -71 9 -9 9 -12 0 -12
-7 0 -12 5 -12 10 0 14 -28 12 -33 -2 -2 -7 -8 -9 -13 -5 -5 5 -1 13 9 18 21
12 23 59 2 59 -9 0 -15 -9 -15 -24 0 -30 -9 -56 -20 -56 -12 0 0 71 14 87 14
16 33 16 39 1z m97 -33 c0 -29 -10 -55 -20 -55 -5 0 -6 18 -3 40 5 36 4 40
-13 33 -16 -6 -17 -5 -4 9 19 20 40 5 40 -27z m38 28 c16 -16 16 -16 -1 -10
-10 4 -23 7 -28 7 -5 0 -9 5 -9 10 0 15 20 12 38 -7z m112 2 c0 -8 -9 -20 -20
-27 -11 -7 -20 -16 -20 -20 0 -5 9 -8 20 -8 15 0 20 -7 20 -26 0 -46 -45 -70
-76 -40 -12 13 -10 14 21 9 33 -5 35 -4 35 21 0 25 -8 31 -39 27 -7 -2 -1 10
13 26 l26 28 -22 3 c-12 2 -24 -1 -26 -7 -2 -6 -8 -9 -13 -6 -17 11 16 34 49
35 22 0 32 -5 32 -15z m-440 -22 c0 -7 -11 -13 -24 -13 -17 0 -26 -7 -30 -25
-4 -14 -11 -25 -17 -25 -6 0 -8 7 -5 16 3 9 6 26 6 38 0 19 6 22 35 22 22 0
35 -5 35 -13z m-10 -48 c-14 -17 -40 -20 -40 -6 0 8 18 16 44 20 5 0 3 -6 -4
-14z m324 0 c-7 -16 -24 -21 -24 -6 0 8 7 13 27 20 1 1 0 -6 -3 -14z m2185
-169 c30 -16 51 -53 51 -91 0 -37 -48 -85 -92 -92 -33 -5 -41 -2 -73 30 -24
24 -35 44 -35 64 1 79 78 125 149 89z m-440 -78 c0 -7 -4 -22 -9 -33 -7 -17
-9 -15 -9 13 -1 17 4 32 9 32 6 0 10 -6 9 -12z m41 -20 c0 -25 -3 -29 -10 -18
-8 13 -10 13 -10 1 0 -11 -3 -12 -11 -4 -8 8 -6 17 7 32 10 11 20 21 21 21 2
0 3 -15 3 -32z m40 22 c-13 -9 -13 -11 0 -20 13 -9 13 -10 0 -10 -13 0 -13 -1
0 -10 12 -8 11 -10 -7 -10 -17 0 -23 6 -23 23 0 28 7 37 29 37 14 0 14 -2 1
-10z m63 -3 c3 10 5 3 6 -16 1 -33 0 -34 -18 -17 -18 17 -19 17 -24 -1 -3 -10
-5 -3 -6 16 -1 33 0 34 18 17 18 -17 19 -17 24 1z m44 -34 c6 -2 13 6 16 19 4
21 4 21 3 -2 -1 -18 -7 -25 -21 -25 -15 0 -20 7 -22 30 -2 27 -1 28 5 6 4 -14
13 -26 19 -28z m-1227 -1503 c11 -11 20 -31 20 -45 0 -14 -9 -34 -20 -45 -18
-18 -33 -20 -190 -20 -157 0 -172 2 -190 20 -11 11 -20 31 -20 45 0 14 9 34
20 45 18 18 33 20 190 20 157 0 172 -2 190 -20z m660 0 c11 -11 20 -31 20 -45
0 -14 -9 -34 -20 -45 -18 -18 -33 -20 -190 -20 -157 0 -172 2 -190 20 -11 11
-20 31 -20 45 0 14 9 34 20 45 18 18 33 20 190 20 157 0 172 -2 190 -20z
m-1035 -429 c-3 -6 3 -14 12 -20 10 -6 13 -11 7 -11 -15 0 -36 25 -27 33 10
10 15 8 8 -2z m98 -22 c22 -2 22 -2 0 -6 -13 -2 -23 -11 -23 -18 0 -7 10 -16
23 -18 19 -4 18 -4 -5 -6 -27 -1 -28 1 -27 42 1 23 3 34 6 25 2 -10 14 -19 26
-19z m75 -42 c12 -3 11 -5 -5 -6 -21 -1 -23 3 -21 42 l1 42 4 -37 c3 -24 10
-38 21 -41z m124 46 c-3 -18 1 -30 13 -40 11 -7 14 -13 9 -13 -26 0 -46 54
-27 73 10 11 11 9 5 -20z m105 -35 c-2 -13 -4 -3 -4 22 0 25 2 35 4 23 2 -13
2 -33 0 -45z m287 48 c-3 -8 3 -16 15 -19 12 -3 21 -12 21 -21 0 -21 -28 -32
-42 -18 -8 8 -5 9 11 5 15 -4 21 -1 21 11 0 9 -6 16 -14 16 -17 0 -38 24 -29
33 11 12 23 7 17 -7z m114 7 c-13 -3 -19 -16 -20 -41 l-1 -37 -4 37 c-3 24
-10 38 -21 41 -9 3 1 5 23 5 22 0 32 -2 23 -5z m78 -36 c7 -21 9 -37 3 -37 -5
0 -9 5 -9 10 0 6 -9 10 -20 10 -11 0 -20 -4 -20 -10 0 -5 -4 -10 -10 -10 -5 0
-7 6 -5 13 20 56 27 68 37 65 6 -2 17 -21 24 -41z m87 28 c4 -8 2 -17 -4 -21
-5 -3 -7 -15 -4 -27 5 -19 5 -20 -5 -4 -6 9 -15 17 -20 17 -5 0 -11 -8 -13
-17 -3 -10 -5 1 -6 25 -1 38 1 42 23 42 13 0 26 -7 29 -15z m75 8 c-13 -3 -19
-16 -20 -41 l-1 -37 -4 37 c-3 24 -10 38 -21 41 -9 3 1 5 23 5 22 0 32 -2 23
-5z m-795 -30 c-7 -2 -19 -2 -25 0 -7 3 -2 5 12 5 14 0 19 -2 13 -5z m-206
-25 c-3 -8 -6 -5 -6 6 -1 11 2 17 5 13 3 -3 4 -12 1 -19z m-22 -16 c-3 -3 -11
0 -18 7 -9 10 -8 11 6 5 10 -3 15 -9 12 -12z m238 1 c-7 -2 -21 -2 -30 0 -10
3 -4 5 12 5 17 0 24 -2 18 -5z"/>
<path d="M490 2500 c0 -20 5 -30 15 -30 10 0 15 10 15 30 0 20 -5 30 -15 30
-10 0 -15 -10 -15 -30z"/>
<path d="M1930 230 c0 -11 5 -20 10 -20 6 0 10 9 10 20 0 11 -4 20 -10 20 -5
0 -10 -9 -10 -20z"/>
<path d="M2010 235 c0 -8 7 -15 15 -15 8 0 15 7 15 15 0 8 -7 15 -15 15 -8 0
-15 -7 -15 -15z"/>
</g>
</svg>
